<?xml version="1.0" encoding="UTF-8"?>
<svg width="170px" height="46px" viewBox="0 0 170 46" version="1.1" xmlns="http://www.w3.org/2000/svg" xmlns:xlink="http://www.w3.org/1999/xlink">
    <title>Menu logo default svg</title>
    <g id="✓-|-Components-•-icons-exports" stroke="none" stroke-width="1" fill="none" fill-rule="evenodd">
        <g id="Menu-logo-default-svg" fill="#0D233F" fill-rule="nonzero">
            <path d="M37.6655232,0 C37.7476822,0 37.8239995,0.0424710699 37.8670993,0.112417557 C37.9057286,0.18238477 37.9057286,0.267285167 37.8670993,0.33725238 L35.875,4.725 L40.0417947,4.72540224 C40.1228339,4.72590185 40.1983497,4.76656423 40.2433708,4.83394886 C40.2819695,4.90530034 40.2819695,4.99130866 40.2433708,5.06266014 L38.261,9.423 L42.4180662,9.42368043 C42.4998435,9.42503482 42.5755137,9.4672355 42.6196423,9.53609784 C42.6582716,9.60606506 42.6582716,9.69096545 42.6196423,9.76093267 L40.631,14.137 L44.7943377,14.1374581 C44.8755529,14.1374581 44.9513766,14.1780853 44.9959138,14.2459998 C45.0325065,14.3178458 45.0325065,14.4028649 44.9959138,14.474711 L43.007,18.847 L47.1706092,18.8473607 C47.2506296,18.8477589 47.3250196,18.8886005 47.3683088,18.9559017 C47.4069075,19.0272531 47.4069075,19.1132615 47.3683088,19.184613 L35.6846509,44.9204474 C35.6455187,45.0051637 35.5608857,45.0595706 35.467569,45.06 L9.73173462,45.06 C9.64995735,45.0586456 9.57428717,45.0164449 9.53015857,44.9475826 C9.49152928,44.8776154 9.49152928,44.792715 9.53015857,44.7227478 L11.517,40.346 L7.35546312,40.3462426 C7.27506551,40.3473079 7.20000286,40.306097 7.15776353,40.2376807 C7.11296404,40.1696535 7.10566843,40.0835654 7.13838122,40.0089694 L9.126,35.636 L4.99857393,35.6363197 C4.9177265,35.6363197 4.84260553,35.5945504 4.79940383,35.5262132 C4.75620213,35.457876 4.75090842,35.3722034 4.78536849,35.2990675 L6.771,30.922 L2.60679658,30.922591 C2.52521701,30.9242245 2.44872154,30.8830346 2.40522053,30.8140004 C2.36662182,30.7426489 2.36662182,30.6566406 2.40522053,30.5852891 L4.391,26.212 L0.230525081,26.2126394 C0.149658015,26.2114774 0.0744331037,26.1709717 0.0289490317,26.1040985 C-0.00964967722,26.032747 -0.00964967722,25.9467387 0.0289490317,25.8753872 L11.7164834,0.139552794 C11.7563507,0.0554793439 11.8405283,0.00136514883 11.9335653,0 L37.6655232,0 Z M46.782963,19.3241656 L42.79,19.324 L33.29675,40.206669 C33.2594704,40.2877094 33.1803729,40.3414361 33.0912975,40.3462426 L12.026,40.346 L10.0999986,44.5831951 L35.2970047,44.5831951 L46.782963,19.3241656 Z M94.9751445,35.5471611 L94.9751445,40.3888627 C94.9751445,41.807648 95.6225138,42.5170406 96.9133758,42.5170406 C98.3127787,42.5170406 99.2392533,41.4742722 99.2392533,39.5127822 L99.2392533,35.5471611 L100.475845,35.5471611 L100.475845,40.6912268 L101.32479,43.3931211 L100.026175,43.3931211 L99.2276239,40.8113971 L99.2276239,42.2611941 C98.6919257,43.1563672 97.7028198,43.6793084 96.6614057,43.617956 C94.8239625,43.617956 93.7346765,42.4550172 93.7346765,40.5865623 L93.7346765,35.5471611 L94.9751445,35.5471611 Z M111.876521,35.3068204 C114.24504,35.3068204 115.663825,36.9349346 115.663825,39.3344649 C115.652195,39.5011528 115.63669,39.6949759 115.621184,39.8771697 L109.298673,39.8771697 C109.449855,41.6254542 110.566277,42.5170406 112.012197,42.5170406 C113.264295,42.5170406 114.124869,42.0053476 114.590045,40.9160616 L115.539778,41.7184893 C114.845891,43.0442395 113.399971,43.617956 111.996691,43.617956 C109.628173,43.617956 108.03107,41.9278183 108.03107,39.4701411 C108.03107,37.1016225 109.659184,35.3068204 111.876521,35.3068204 Z M73.9685944,35.3068204 C75.7440142,35.3068204 77.0116174,36.2410479 77.1783053,37.6133156 L76.0153665,38.0513558 C75.9417138,37.0124639 75.2168153,36.3457123 73.9647179,36.3457123 C72.8017791,36.3457123 72.1544099,36.8922936 72.1544099,37.5978097 C72.1544099,39.536041 77.2984756,38.2025379 77.2984756,41.2494374 C77.2984756,42.7263696 76.0618841,43.617956 74.0848882,43.617956 C72.0497454,43.617956 70.8286597,42.5635582 70.596072,41.1757846 L71.8326635,40.6602151 C71.8753046,41.8696714 72.7358793,42.5751876 74.0771353,42.5751876 C75.1509154,42.5751876 75.9494667,42.1875413 75.9494667,41.338596 C75.9494667,39.4003648 70.8674244,40.8113971 70.8674244,37.675339 C70.8674244,36.3030713 72.2823332,35.3068204 73.9685944,35.3068204 Z M80.8415623,32.6359378 L80.8415623,35.5316552 L83.1054164,35.5316552 L83.1054164,36.6635823 L80.8415623,36.6790881 L80.8415623,41.187414 C80.8415623,42.3038352 81.3261201,42.4395114 82.1828183,42.4395114 C82.436923,42.4321191 82.6898771,42.4022835 82.9387285,42.3503527 L82.9387285,43.4512681 C82.6299091,43.5400126 82.3103104,43.5856695 81.9889952,43.5869443 C80.4384102,43.5869443 79.6049708,42.9822161 79.6049708,41.338596 L79.6049708,36.686841 L78.2327031,36.686841 L78.2327031,35.5471611 L79.6049708,35.5471611 L79.6049708,33.5856711 L80.8415623,32.6359378 Z M89.9512492,32.6359378 L89.9512492,35.5316552 L92.2189797,35.5316552 L92.2189797,36.6635823 L89.9512492,36.6790881 L89.9512492,41.187414 C89.9512492,42.3038352 90.435807,42.4395114 91.2925052,42.4395114 C91.5465936,42.4318992 91.7995285,42.4020659 92.0484154,42.3503527 L92.0484154,43.4512681 C91.739534,43.5397231 91.4199755,43.5853743 91.098682,43.5869443 C89.5480971,43.5869443 88.7146576,42.9822161 88.7146576,41.338596 L88.7146576,36.686841 L87.3423899,36.686841 L87.3423899,35.5471611 L88.7301635,35.5471611 L88.7301635,33.5856711 L89.9512492,32.6359378 Z M104.685683,32.6359378 L104.685683,35.5316552 L106.949537,35.5316552 L106.949537,36.6635823 L104.685683,36.6790881 L104.685683,41.187414 C104.685683,42.3038352 105.170241,42.4395114 106.026939,42.4395114 C106.281028,42.4318992 106.533962,42.4020659 106.782849,42.3503527 L106.782849,43.4512681 C106.473968,43.5397231 106.154409,43.5853743 105.833116,43.5869443 C104.282531,43.5869443 103.449092,42.9822161 103.449092,41.338596 L103.449092,36.686841 L102.076824,36.686841 L102.076824,35.5471611 L103.460721,35.5471611 L103.460721,33.5856711 L104.685683,32.6359378 Z M66.0606109,35.3223263 C67.9794598,35.3223263 69.0803752,36.5124002 69.0803752,38.4893961 L69.0803752,43.3931211 L67.8437836,43.3931211 L67.8437836,38.6715898 C67.8437836,37.206287 67.1498969,36.4387474 65.8202702,36.4387474 C64.3588439,36.4387474 63.4401223,37.4039866 63.4401223,39.1522712 L63.4401223,43.4163799 L62.2035307,43.4163799 L62.2035307,35.5471611 L63.4401223,35.5471611 L63.4401223,37.9156797 L63.8277685,36.225542 C64.1882795,35.8030076 64.8085135,35.3223263 66.0606109,35.3223263 Z M59.7729888,32.3064384 L59.7729888,43.3931211 L58.5208914,43.3931211 L58.5208914,32.3064384 L59.7729888,32.3064384 Z M85.9391105,35.5471611 L85.9391105,43.3931211 L84.702519,43.3931211 L84.702519,35.5471611 L85.9391105,35.5471611 Z M13.656,35.636 L9.642,35.636 L7.71209766,39.8694167 L11.734,39.869 L13.656,35.636 Z M42.275,19.324 L38.276,19.324 L30.9321079,35.4967671 C30.8929757,35.5814834 30.8083427,35.6358903 30.715026,35.6363197 L14.168,35.636 L12.243,39.869 L32.9091038,39.8694167 L42.275,19.324 Z M111.872644,36.4077357 C110.597288,36.4077357 109.527385,37.2876927 109.314179,38.8809188 L114.314816,38.8809188 C114.314816,37.3303338 113.334071,36.4077357 111.872644,36.4077357 Z M11.27,30.922 L7.284,30.922 L5.35133202,35.1595148 L9.343,35.159 L11.27,30.922 Z M15.797,30.922 L11.791,30.922 L9.859,35.159 L13.873,35.159 L15.797,30.922 Z M37.784,19.324 L33.762,19.324 L28.5558364,30.7829887 C28.5167042,30.867705 28.4320712,30.9221119 28.3387545,30.922591 L16.312,30.922 L14.385,35.159 L30.5832263,35.1595148 L37.784,19.324 Z M86.0902925,32.3064384 L86.0902925,33.7988765 L84.5668428,33.7988765 L84.5668428,32.3064384 L86.0902925,32.3064384 Z M99.6346524,20.467722 L102.348176,26.7398383 L104.926024,20.467722 L106.271156,20.467722 L101.565131,31.5544047 L100.235504,31.5544047 L101.654289,28.1896353 L98.2468789,20.467722 L99.6346524,20.467722 Z M8.909,26.212 L4.903,26.212 L2.97506052,30.4457365 L6.988,30.445 L8.909,26.212 Z M13.412,26.212 L9.432,26.212 L7.501,30.445 L11.487,30.445 L13.412,26.212 Z M17.936,26.212 L13.938,26.212 L12.008,30.445 L16.014,30.445 L17.936,26.212 Z M33.236,19.324 L29.247,19.324 L26.1834414,26.0730868 C26.1443091,26.1578031 26.0596762,26.21221 25.9663595,26.2126394 L18.453,26.212 L16.528,30.445 L28.1720666,30.4457365 L33.236,19.324 Z M78.7800469,21.403902 C79.5716767,22.1911257 80.0021842,23.2708859 79.9693583,24.3868256 C79.9756295,26.074558 78.964205,27.5997397 77.4070422,28.2506806 C75.8498794,28.9016215 74.0539024,28.5500182 72.8571613,27.359938 C71.6604202,26.1698578 71.2987984,24.3758712 71.9410381,22.8150995 C72.5832778,21.2543278 74.1027906,20.2344065 75.7905317,20.2312578 C76.9062708,20.1922039 77.988417,20.6166782 78.7800469,21.403902 Z M131.243327,21.7275723 L131.243327,20.467722 L132.479919,20.467722 L132.479919,24.9450362 L133.642858,28.3098056 L132.328737,28.3098056 L131.336363,25.2939178 L131.185181,27.1778786 C130.455945,28.072666 129.350041,28.5746976 128.196428,28.5346405 C125.785268,28.5346405 124.215301,26.6971972 124.215301,24.3868256 C124.215301,22.076454 125.785268,20.2312578 128.196428,20.2312578 C129.398627,20.1879681 130.542586,20.7497594 131.243327,21.7275723 Z M151.780826,20.2235049 C154.149344,20.2235049 155.56813,21.8554956 155.56813,24.2511494 C155.572006,24.4178373 155.5565,24.6155369 155.540994,24.7938542 L149.202978,24.7938542 C149.35416,26.5460152 150.470581,27.4337251 151.916502,27.4337251 C153.168599,27.4337251 154.029174,26.9220321 154.494349,25.8366226 L155.444083,26.6351738 C154.750196,27.9648005 153.304275,28.5346405 151.900996,28.5346405 C149.532477,28.5346405 147.935375,26.8483793 147.935375,24.3868256 C147.935375,22.0221835 149.563489,20.2235049 151.780826,20.2235049 Z M93.8703527,20.2235049 C96.2388713,20.2235049 97.6537801,21.8554956 97.6537801,24.2511494 C97.6460272,24.4178373 97.6460272,24.6155369 97.6150155,24.7938542 L91.2925052,24.7938542 C91.4436872,26.5460152 92.5601084,27.4337251 94.0060289,27.4337251 C95.2581263,27.4337251 96.1148245,26.9220321 96.5838765,25.8366226 L97.5336098,26.6351738 C96.839723,27.9648005 95.3938025,28.5346405 93.9905231,28.5346405 C91.6220045,28.5346405 90.0210255,26.8483793 90.0210255,24.3868256 C90.0210255,22.0221835 91.6530162,20.2235049 93.8703527,20.2235049 Z M165.887273,20.2235049 C167.666569,20.2312578 168.930296,21.1616088 169.096984,22.5338765 L167.934045,22.9719168 C167.856516,21.9291484 167.135494,21.2662733 165.883396,21.2662733 C164.720457,21.2662733 164.073088,21.8089781 164.073088,22.5183707 C164.073088,24.4566019 169.213277,23.1230988 169.213277,26.1699983 C169.213277,27.6469305 167.976686,28.5346405 166.003567,28.5346405 C163.964547,28.5346405 162.743462,27.4802427 162.51475,26.0924691 L163.751342,25.580776 C163.797859,26.7863559 164.654558,27.4957485 165.99969,27.4957485 C167.069594,27.4957485 167.868145,27.1081023 167.868145,26.259157 C167.868145,24.3209257 162.786103,25.7319581 162.786103,22.5920235 C162.786103,21.2197558 164.204888,20.2235049 165.887273,20.2235049 Z M159.177116,17.5720046 L159.177116,20.467722 L161.44097,20.467722 L161.44097,21.5996491 L159.188745,21.5996491 L159.188745,26.1079749 C159.188745,27.2243961 159.673303,27.3600723 160.530002,27.3600723 C160.783944,27.3505276 161.036718,27.3207132 161.285912,27.2709137 L161.285912,28.371829 C160.97703,28.460284 160.657472,28.5059352 160.336178,28.5075052 C158.785593,28.5075052 157.952154,27.9027771 157.952154,26.259157 L157.952154,21.607402 L156.568257,21.607402 L156.568257,20.467722 L157.940525,20.467722 L157.940525,18.506232 L159.177116,17.5720046 Z M85.4545527,20.2389735 C87.3734016,20.2312578 88.474317,21.4329612 88.474317,23.4099571 L88.474317,28.3098056 L87.2377254,28.3098056 L87.2377254,23.5882743 C87.2377254,22.126848 86.5438386,21.3554319 85.214212,21.3554319 C83.7527857,21.3554319 82.834064,22.3206711 82.834064,24.0689557 L82.834064,28.3330644 L81.5974725,28.3330644 L81.5974725,20.467722 L82.834064,20.467722 L82.834064,22.8362406 L83.2217103,21.146103 C83.5822213,20.7235686 84.2024553,20.2389735 85.4545527,20.2389735 Z M141.876464,17.2231229 L141.876464,25.270659 L142.26411,23.6580507 L145.566856,20.475475 L147.210476,20.475475 L143.954248,23.6115331 L147.497335,28.3175586 L145.989391,28.3175586 L143.128561,24.4178373 L141.876464,25.6234171 L141.876464,28.3098056 L140.624367,28.3098056 L140.624367,17.2231229 L141.876464,17.2231229 Z M60.3622111,17.2231229 L64.1185032,26.9142791 L67.8903012,17.2231229 L69.7122386,17.2231229 L69.7122386,28.3098056 L68.4601412,28.3098056 L68.4601412,18.866743 L64.8278958,28.2051411 L63.3936047,28.2051411 L59.7729888,18.8396078 L59.7729888,28.3098056 L58.5208914,28.3098056 L58.5208914,17.2231229 L60.3622111,17.2231229 Z M139.252099,20.3746869 L139.252099,21.657796 C139.048878,21.6094536 138.840755,21.584739 138.631865,21.5841432 C137.216956,21.5841432 136.174188,22.3361769 136.174188,24.5108724 L136.174188,28.3098056 L134.937596,28.3098056 L134.937596,20.467722 L136.174188,20.467722 L136.174188,23.1812458 L136.561834,21.2430145 C137.144819,20.6604514 137.939639,20.3400045 138.763665,20.3553046 C138.926732,20.3481159 139.090114,20.3545993 139.252099,20.3746869 Z M112.965807,17.2231229 L116.722099,26.9142791 L120.493897,17.2231229 L122.300329,17.2231229 L122.300329,28.3098056 L121.048231,28.3098056 L121.048231,18.866743 L117.415986,28.2051411 L115.981695,28.2051411 L112.376585,18.8396078 L112.376585,28.3098056 L111.124487,28.3098056 L111.124487,17.2231229 L112.965807,17.2231229 Z M128.378622,21.3554319 C126.58382,21.3554319 125.482904,22.7160703 125.482904,24.3868256 C125.482904,26.0575809 126.537302,27.4065899 128.378622,27.4065899 C130.219941,27.4065899 131.274339,26.0459515 131.274339,24.3868256 C131.274339,22.7160703 130.173424,21.3554319 128.378622,21.3554319 Z M75.7905317,21.3709378 C74.0848882,21.3709378 72.8948142,22.5571353 72.8948142,24.3868256 C72.8948142,26.1971336 74.1314058,27.391084 75.7905317,27.391084 C77.4496577,27.391084 78.701755,26.1971336 78.701755,24.3868256 C78.701755,22.5765176 77.4961752,21.3709378 75.7905317,21.3709378 Z M37.2972593,0.46129918 L12.1002532,0.46129918 L0.598789016,25.7358345 L4.608,25.735 L14.0927549,4.85333117 C14.1325427,4.77436674 14.213664,4.72479256 14.3020839,4.72540224 L35.356,4.725 L37.2972593,0.46129918 Z M35.145,5.19 L14.4765247,5.1905834 L5.12,25.735 L9.126,25.735 L16.4651499,9.56323308 C16.5042822,9.47851676 16.5889152,9.42410983 16.6822318,9.42368043 L33.218,9.423 L35.145,5.19 Z M33.001,9.9 L16.8721785,9.90048532 L9.649,25.735 L13.629,25.735 L18.8414214,14.2770115 C18.8805537,14.1922951 18.9651867,14.1378882 19.0585033,14.1374581 L31.073,14.137 L33.001,9.9 Z M30.856,14.614 L19.2251912,14.6142637 L14.155,25.735 L18.153,25.735 L21.2176929,18.9869134 C21.2568252,18.902197 21.3414582,18.8477901 21.4347748,18.8473607 L28.93,18.847 L30.856,14.614 Z M28.713,19.324 L21.5859569,19.3241656 L18.67,25.735 L25.7957951,25.7358345 L28.713,19.324 Z M93.8587233,21.3282967 C92.606626,21.3282967 91.5212165,22.1694891 91.308011,23.8014798 L96.3008947,23.8014798 C96.3008947,22.2508948 95.3201497,21.3282967 93.8587233,21.3282967 Z M151.800208,21.3282967 C150.517099,21.3282967 149.447195,22.1694891 149.23399,23.8014798 L154.242379,23.8014798 C154.242379,22.2508948 153.261634,21.3282967 151.800208,21.3282967 Z M35.381,14.614 L31.385,14.614 L29.464,18.847 L33.454,18.847 L35.381,14.614 Z M39.925,14.614 L35.902,14.614 L33.979,18.847 L38.001,18.847 L39.925,14.614 Z M44.4221973,14.6142637 L40.415,14.614 L38.492,18.847 L42.492,18.847 L44.4221973,14.6142637 Z M126.223309,5.14406585 C128.657727,5.14406585 130.208312,6.98538553 130.208312,9.30738656 C130.208312,11.633264 128.657727,13.4552014 126.223309,13.4552014 C125.341211,13.4807472 124.477736,13.1984047 123.781137,12.6566501 L123.191915,10.6486426 L123.191915,16.4633363 L121.955323,16.4633363 L121.955323,5.38440653 L123.191915,5.38440653 L123.191915,6.62099806 C123.895227,5.65679726 125.030539,5.10365901 126.223309,5.14406585 Z M37.528,9.9 L33.525,9.9 L31.602,14.137 L35.599,14.137 L37.528,9.9 Z M42.0691846,9.90048532 L38.044,9.9 L36.119,14.137 L40.142,14.137 L42.0691846,9.90048532 Z M135.193443,5.14406585 C137.561961,5.14406585 138.980747,6.7721801 138.980747,9.17171037 C138.965241,9.33839826 138.949735,9.53222138 138.934229,9.71441512 L132.615595,9.71441512 C132.766777,11.4626997 133.883198,12.3542861 135.329119,12.3542861 C136.581216,12.3542861 137.441791,11.842593 137.910843,10.7533071 L138.860576,11.5557348 C138.166689,12.881485 136.716893,13.4552014 135.31749,13.4552014 C132.948971,13.4552014 131.347992,11.7650638 131.347992,9.30738656 C131.347992,6.93886798 132.976106,5.14406585 135.193443,5.14406585 Z M79.8763232,5.14406585 C82.2448417,5.14406585 83.663627,6.7721801 83.663627,9.17171037 C83.6481212,9.33839826 83.6326153,9.53222138 83.6171095,9.71441512 L77.2984756,9.71441512 C77.4496577,11.4626997 78.5660789,12.3542861 80.0119994,12.3542861 C81.2640967,12.3542861 82.1246714,11.842593 82.5937234,10.7533071 L83.5434567,11.5557348 C82.8495699,12.881485 81.3997729,13.4552014 80.00037,13.4552014 C77.6318514,13.4552014 76.0308724,11.7650638 76.0308724,9.30738656 C76.0308724,6.93886798 77.6589866,5.14406585 79.8763232,5.14406585 Z M99.4369528,5.3766536 L99.4369528,10.241614 C99.4369528,11.6603993 100.084322,12.3697919 101.375184,12.3697919 C102.778463,12.3697919 103.701062,11.3270235 103.701062,9.36553349 L103.701062,5.38440653 L104.937653,5.38440653 L104.937653,10.5401016 L105.786598,13.2303666 L104.49186,13.2303666 L103.689432,10.6486426 L103.689432,12.0906866 C103.155646,12.985896 102.167536,13.5091012 101.12709,13.4474485 C99.2857708,13.4474485 98.2003613,12.2845097 98.2003613,10.4160548 L98.2003613,5.3766536 L99.4369528,5.3766536 Z M147.229859,6.62875098 L147.229859,5.38440653 L148.46645,5.38440653 L148.46645,9.86559715 L149.629389,13.2303666 L148.315268,13.2303666 L147.319017,10.2106023 L147.167835,12.0906866 C146.439812,12.9848562 145.335349,13.486885 144.182959,13.4474485 C141.767923,13.4474485 140.201832,11.6061288 140.201832,9.29963363 C140.201832,6.99313846 141.752417,5.13631293 144.182959,5.13631293 C145.384142,5.09354043 146.527328,5.653498 147.229859,6.62875098 Z M116.169703,5.26345558 C118.423819,5.26345558 120.270129,7.05431831 120.338839,9.30738656 C120.270129,11.5604548 118.423819,13.3513175 116.169703,13.3513175 C113.915587,13.3513175 112.069278,11.5604548 112.000568,9.30738656 C112.069278,7.05431831 113.915587,5.26345558 116.169703,5.26345558 Z M96.2543771,2.1436839 L96.2543771,3.28724033 L90.2381074,3.28724033 L90.2381074,7.01639723 L95.8202133,7.01639723 L95.8202133,8.15995366 L90.2381074,8.15995366 L90.2381074,12.0906866 L96.2853888,12.0906866 L96.2853888,13.2536254 L88.9705041,13.2536254 L88.9705041,2.1436839 L96.2543771,2.1436839 Z M68.8516639,2.1436839 L68.8516639,7.7839368 L69.2393101,6.10930501 C69.5998211,5.64025305 70.1735376,5.1595717 71.4411408,5.1595717 C73.3793721,5.1595717 74.4802874,6.34964569 74.4802874,8.32664155 L74.4802874,13.2303666 L73.2436959,13.2303666 L73.2436959,8.50883529 C73.2436959,7.04353247 72.5498091,6.2759929 71.1775414,6.2759929 C69.8052737,6.2759929 68.8516639,7.22572621 68.8516639,8.98951663 L68.8516639,13.2536254 L67.6150724,13.2536254 L67.6150724,2.1436839 L68.8516639,2.1436839 Z M154.781208,5.1595717 C156.700057,5.1595717 157.800972,6.34964569 157.800972,8.32664155 L157.800972,13.2303666 L156.568257,13.2303666 L156.568257,8.50883529 C156.568257,7.05128539 155.870494,6.2759929 154.544743,6.2759929 C153.079441,6.2759929 152.160719,7.24123206 152.160719,8.98951663 L152.160719,13.2536254 L150.924127,13.2536254 L150.924127,5.38440653 L152.160719,5.38440653 L152.160719,7.7529251 L152.548365,6.06278746 C152.912753,5.64025305 153.52911,5.1595717 154.781208,5.1595717 Z M66.1071284,2.13980743 L66.1071284,3.30274618 L62.4438714,3.30274618 L62.4438714,13.2303666 L61.1762682,13.2303666 L61.1762682,3.30274618 L57.5130111,3.30274618 L57.5130111,2.13980743 L66.1071284,2.13980743 Z M111.601292,5.29524789 L111.601292,6.57835697 C111.398224,6.52870883 111.190099,6.50269319 110.981058,6.50082772 C109.566149,6.50082772 108.523381,7.27612022 108.523381,9.42755689 L108.523381,13.2303666 L107.286789,13.2303666 L107.286789,5.38440653 L108.500122,5.38440653 L108.500122,8.09793026 L108.887768,6.15969902 C109.470106,5.57571499 110.265008,5.25383597 111.089599,5.26811265 C111.260642,5.26006363 111.43206,5.26915402 111.601292,5.29524789 Z M126.060497,6.2759929 C124.23856,6.2759929 123.149274,7.63275477 123.149274,9.30738656 C123.149274,10.9820183 124.265695,12.3232744 126.060497,12.3232744 C127.855299,12.3232744 128.952338,10.9665125 128.952338,9.30738656 L128.940709,9.30738656 C128.940709,7.63275477 127.882435,6.2759929 126.060497,6.2759929 Z M144.369029,6.2759929 C142.574227,6.2759929 141.473312,7.63275477 141.473312,9.30738656 C141.473312,10.9820183 142.52771,12.3232744 144.369029,12.3232744 C146.210349,12.3232744 147.264747,10.9820183 147.264747,9.30738656 C147.264747,7.63275477 146.163832,6.2759929 144.369029,6.2759929 Z M116.163888,6.2759929 C114.462121,6.2759929 113.268171,7.48157273 113.268171,9.30738656 C113.268171,11.1176945 114.504762,12.3077685 116.163888,12.3077685 C117.823014,12.3077685 119.075112,11.1176945 119.075112,9.30738656 C119.075112,7.49707858 117.865655,6.2759929 116.163888,6.2759929 Z M39.6735308,5.1905834 L35.664,5.19 L33.742,9.423 L37.745,9.423 L39.6735308,5.1905834 Z M79.8608173,6.2449812 C78.5970906,6.2449812 77.5233104,7.10555587 77.3139815,8.71816426 L82.3068651,8.71816426 C82.3068651,7.16757927 81.3261201,6.2449812 79.8608173,6.2449812 Z M135.177937,6.2449812 C133.91421,6.2449812 132.84043,7.10555587 132.631101,8.71816426 L137.623985,8.71816426 C137.623985,7.16757927 136.64324,6.2449812 135.177937,6.2449812 Z" id="Combined-Shape"></path>
        </g>
    </g>
</svg>